<?xml version="1.0" encoding="UTF-8" standalone="no"?>
<!-- Uploaded to: SVG Repo, www.svgrepo.com, Transformed by: SVG Repo Mixer Tools -->

<svg
   fill="#ffffff"
   width="64px"
   height="64px"
   viewBox="-5.5 0 32 32"
   version="1.1"
   stroke="#ffffff"
   id="svg9196"
   sodipodi:docname="linkedin-azul.svg"
   inkscape:version="1.2.2 (732a01da63, 2022-12-09, custom)"
   xmlns:inkscape="http://www.inkscape.org/namespaces/inkscape"
   xmlns:sodipodi="http://sodipodi.sourceforge.net/DTD/sodipodi-0.dtd"
   xmlns="http://www.w3.org/2000/svg"
   xmlns:svg="http://www.w3.org/2000/svg">
  <defs
     id="defs9200" />
  <sodipodi:namedview
     id="namedview9198"
     pagecolor="#505050"
     bordercolor="#ffffff"
     borderopacity="1"
     inkscape:showpageshadow="0"
     inkscape:pageopacity="0"
     inkscape:pagecheckerboard="1"
     inkscape:deskcolor="#505050"
     showgrid="false"
     inkscape:zoom="12.703125"
     inkscape:cx="14.130381"
     inkscape:cy="32.078721"
     inkscape:window-width="1920"
     inkscape:window-height="954"
     inkscape:window-x="1920"
     inkscape:window-y="27"
     inkscape:window-maximized="1"
     inkscape:current-layer="svg9196" />
  <g
     id="SVGRepo_bgCarrier"
     stroke-width="0" />
  <g
     id="SVGRepo_tracerCarrier"
     stroke-linecap="round"
     stroke-linejoin="round" />
  <g
     id="SVGRepo_iconCarrier"
     style="fill:#191528;fill-opacity:1;stroke:#191528;stroke-opacity:1">
    <title
       id="title9191">linkedin</title>
    <path
       d="M0 8.219v15.563c0 1.469 1.156 2.625 2.625 2.625h15.563c0.719 0 1.406-0.344 1.844-0.781 0.469-0.469 0.781-1.063 0.781-1.844v-15.563c0-1.469-1.156-2.625-2.625-2.625h-15.563c-0.781 0-1.375 0.313-1.844 0.781-0.438 0.438-0.781 1.125-0.781 1.844zM2.813 10.281c0-1 0.813-1.875 1.813-1.875 1.031 0 1.875 0.875 1.875 1.875 0 1.031-0.844 1.844-1.875 1.844-1 0-1.813-0.813-1.813-1.844zM7.844 23.125v-9.531c0-0.219 0.219-0.406 0.375-0.406h2.656c0.375 0 0.375 0.438 0.375 0.719 0.75-0.75 1.719-0.938 2.719-0.938 2.438 0 4 1.156 4 3.719v6.438c0 0.219-0.188 0.406-0.375 0.406h-2.75c-0.219 0-0.375-0.219-0.375-0.406v-5.813c0-0.969-0.281-1.5-1.375-1.5-1.375 0-1.719 0.906-1.719 2.125v5.188c0 0.219-0.219 0.406-0.438 0.406h-2.719c-0.156 0-0.375-0.219-0.375-0.406zM2.875 23.125v-9.531c0-0.219 0.219-0.406 0.375-0.406h2.719c0.25 0 0.406 0.156 0.406 0.406v9.531c0 0.219-0.188 0.406-0.406 0.406h-2.719c-0.188 0-0.375-0.219-0.375-0.406z"
       id="path9193"
       style="fill:#191528;fill-opacity:1;stroke:#191528;stroke-opacity:1" />
  </g>
</svg>
